<svg width="98" height="24" viewBox="0 0 98 24" fill="none" xmlns="http://www.w3.org/2000/svg">
<path d="M14.5287 22.2111L14.7521 22.6233C14.2991 23.0314 13.8503 23.3612 13.4035 23.6127C12.9567 23.8703 12.5182 24.0002 12.088 24.0002C11.2544 24.0002 10.7352 23.6745 10.5325 23.0273C10.3277 22.3801 10.2264 21.2444 10.2264 19.6223C9.2666 21.2836 8.251 22.4296 7.18162 23.0603C6.11017 23.6869 4.97666 24.0002 3.7811 24.0002C2.68897 24.0002 1.78299 23.7384 1.06731 23.2169C0.355771 22.6955 0 21.9967 0 21.1228C0 20.1231 0.29165 19.2244 0.877018 18.4268C1.46652 17.625 2.50281 16.8356 3.98795 16.0606C5.47722 15.2814 7.556 14.4652 10.2264 13.6119V12.2103C10.2264 10.4851 9.95746 9.26488 9.4238 8.54965C8.88808 7.83649 8.22618 7.47784 7.4381 7.47784C6.45559 7.47784 5.58478 7.7829 4.8236 8.393C4.06655 8.99899 3.44188 9.76987 2.94546 10.7098C2.66829 11.2209 2.418 11.6208 2.19254 11.9052C1.97122 12.1917 1.70853 12.334 1.40654 12.334C1.12937 12.334 0.889428 12.1691 0.686721 11.8393C0.481946 11.5095 0.521246 11.0787 0.802554 10.5449C1.18315 9.84201 1.74162 9.22159 2.48213 8.68157C3.22056 8.13742 4.02932 7.71694 4.90633 7.42013C5.78335 7.1192 6.62727 6.96667 7.4381 6.96667C8.84878 6.96667 9.94919 7.39334 10.7393 8.2446C11.5336 9.09792 11.9307 10.4191 11.9307 12.2103V21.1228C11.9307 21.871 12.0466 22.3801 12.2782 22.6481C12.514 22.9119 12.7519 23.0438 12.9898 23.0438C13.1987 23.0438 13.4221 22.9758 13.66 22.8377C13.8958 22.6955 14.1853 22.4873 14.5287 22.2111ZM4.55056 22.9119C5.47102 22.9119 6.46387 22.578 7.52911 21.906C8.5985 21.2362 9.49827 20.1458 10.2264 18.6329V14.0653C7.98003 14.8733 6.226 15.6071 4.96425 16.2667C3.70664 16.9262 2.82549 17.5899 2.32492 18.2536C1.82229 18.9132 1.57201 19.6594 1.57201 20.4879C1.57201 21.2526 1.86366 21.8483 2.44903 22.277C3.03854 22.7016 3.73974 22.9119 4.55056 22.9119Z" fill="#D6AB93"/>
<path d="M42.4565 21.1888C42.4565 21.9144 42.7067 22.4008 43.2094 22.6482C43.7099 22.8914 44.5414 23.0109 45.6998 23.0109V23.5221H37.517V23.0109C38.5864 23.0109 39.3952 22.8914 39.9412 22.6482C40.4873 22.4008 40.7603 21.9041 40.7603 21.1559V12.8205C40.7603 9.62156 39.4965 8.0221 36.971 8.0221C36.1146 8.0221 35.2438 8.21997 34.3565 8.61571C33.4732 9.01146 32.4969 9.8689 31.4276 11.1881C31.4875 11.6559 31.5186 12.2001 31.5186 12.8205L31.4606 21.1888C31.4606 21.9144 31.7109 22.4008 32.2136 22.6482C32.7141 22.8914 33.5415 23.0109 34.6957 23.0109V23.5221H26.5212V23.0109C27.5906 23.0109 28.3952 22.8914 28.9372 22.6482C29.4832 22.4008 29.7563 21.9041 29.7563 21.1559V12.8205C29.7563 9.62156 28.4945 8.0221 25.9751 8.0221C25.1643 8.0221 24.3287 8.20348 23.4682 8.56624C22.6119 8.92901 21.6831 9.69577 20.6799 10.8665V21.1888C20.6799 21.9144 20.9302 22.4008 21.4329 22.6482C21.9334 22.8914 22.7649 23.0109 23.9233 23.0109V23.5221H15.7405V23.0109C16.8099 23.0109 17.6187 22.8914 18.1647 22.6482C18.7108 22.4008 18.9838 21.9041 18.9838 21.1559V9.74523H15.7157V9.23406C16.7416 9.23406 17.6021 9.10215 18.2971 8.83832C18.9921 8.57449 19.3396 8.14371 19.3396 7.5439H20.6799V10.1327C21.6232 9.04444 22.5684 8.25089 23.5178 7.75002C24.4714 7.25122 25.4911 6.99976 26.5791 6.99976C27.7974 6.99976 28.8234 7.26771 29.657 7.79949C30.4947 8.33333 31.0511 9.2588 31.3283 10.5779C32.3087 9.32476 33.3016 8.41578 34.3068 7.84896C35.3162 7.2842 36.4083 6.99976 37.5832 6.99976C39.0994 6.99976 40.3074 7.42642 41.2071 8.27768C42.1048 9.13101 42.5433 10.6439 42.5226 12.8205L42.4565 21.1888Z" fill="#D6AB93"/>
<path d="M61.1892 22.2111L61.4126 22.6233C60.9596 23.0314 60.5108 23.3612 60.064 23.6127C59.6172 23.8703 59.1787 24.0002 58.7485 24.0002C57.9149 24.0002 57.3957 23.6745 57.193 23.0273C56.9882 22.3801 56.8869 21.2444 56.8869 19.6223C55.9271 21.2836 54.9115 22.4296 53.8421 23.0603C52.7707 23.6869 51.6372 24.0002 50.4416 24.0002C49.3495 24.0002 48.4435 23.7384 47.7278 23.2169C47.0163 22.6955 46.6605 21.9967 46.6605 21.1228C46.6605 20.1231 46.9522 19.2244 47.5375 18.4268C48.127 17.625 49.1633 16.8356 50.6485 16.0606C52.1377 15.2814 54.2165 14.4652 56.8869 13.6119V12.2103C56.8869 10.4851 56.618 9.26488 56.0843 8.54965C55.5486 7.83649 54.8867 7.47784 54.0986 7.47784C53.1161 7.47784 52.2453 7.7829 51.4841 8.393C50.7271 8.99899 50.1024 9.76987 49.606 10.7098C49.3288 11.2209 49.0785 11.6208 48.8531 11.9052C48.6317 12.1917 48.3691 12.334 48.0671 12.334C47.7899 12.334 47.55 12.1691 47.3472 11.8393C47.1425 11.5095 47.1818 11.0787 47.4631 10.5449C47.8437 9.84201 48.4021 9.22159 49.1426 8.68157C49.8811 8.13742 50.6898 7.71694 51.5669 7.42013C52.4439 7.1192 53.2878 6.96667 54.0986 6.96667C55.5093 6.96667 56.6097 7.39334 57.3999 8.2446C58.1941 9.09792 58.5913 10.4191 58.5913 12.2103V21.1228C58.5913 21.871 58.7071 22.3801 58.9388 22.6481C59.1746 22.9119 59.4124 23.0438 59.6503 23.0438C59.8592 23.0438 60.0826 22.9758 60.3205 22.8377C60.5563 22.6955 60.8459 22.4873 61.1892 22.2111ZM51.2111 22.9119C52.1315 22.9119 53.1244 22.578 54.1896 21.906C55.259 21.2362 56.1588 20.1458 56.8869 18.6329V14.0653C54.6406 14.8733 52.8865 15.6071 51.6248 16.2667C50.3672 16.9262 49.486 17.5899 48.9854 18.2536C48.4828 18.9132 48.2325 19.6594 48.2325 20.4879C48.2325 21.2526 48.5242 21.8483 49.1096 22.277C49.6991 22.7016 50.4003 22.9119 51.2111 22.9119Z" fill="#D6AB93"/>
<path d="M76.5822 22.2111L76.8056 22.6233C76.3526 23.0314 75.9037 23.3612 75.4569 23.6127C75.0102 23.8703 74.5717 24.0002 74.1414 24.0002C73.3078 24.0002 72.7887 23.6745 72.586 23.0273C72.3812 22.3801 72.2798 21.2444 72.2798 19.6223C71.3201 21.2836 70.3045 22.4296 69.2351 23.0603C68.1636 23.6869 67.0301 24.0002 65.8346 24.0002C64.7424 24.0002 63.8365 23.7384 63.1208 23.2169C62.4092 22.6955 62.0535 21.9967 62.0535 21.1228C62.0535 20.1231 62.3451 19.2244 62.9305 18.4268C63.52 17.625 64.5563 16.8356 66.0414 16.0606C67.5307 15.2814 69.6095 14.4652 72.2798 13.6119V12.2103C72.2798 10.4851 72.0109 9.26488 71.4773 8.54965C70.9415 7.83649 70.2796 7.47784 69.4916 7.47784C68.5091 7.47784 67.6382 7.7829 66.8771 8.393C66.12 8.99899 65.4953 9.76987 64.9989 10.7098C64.7218 11.2209 64.4715 11.6208 64.246 11.9052C64.0247 12.1917 63.762 12.334 63.46 12.334C63.1828 12.334 62.9429 12.1691 62.7402 11.8393C62.5354 11.5095 62.5747 11.0787 62.856 10.5449C63.2366 9.84201 63.7951 9.22159 64.5356 8.68157C65.274 8.13742 66.0828 7.71694 66.9598 7.42013C67.8368 7.1192 68.6807 6.96667 69.4916 6.96667C70.9022 6.96667 72.0027 7.39334 72.7928 8.2446C73.5871 9.09792 73.9842 10.4191 73.9842 12.2103V21.1228C73.9842 21.871 74.1 22.3801 74.3317 22.6481C74.5675 22.9119 74.8054 23.0438 75.0433 23.0438C75.2522 23.0438 75.4756 22.9758 75.7134 22.8377C75.9492 22.6955 76.2388 22.4873 76.5822 22.2111ZM66.604 22.9119C67.5245 22.9119 68.5173 22.578 69.5826 21.906C70.652 21.2362 71.5517 20.1458 72.2798 18.6329V14.0653C70.0335 14.8733 68.2795 15.6071 67.0177 16.2667C65.7601 16.9262 64.879 17.5899 64.3784 18.2536C63.8758 18.9132 63.6255 19.6594 63.6255 20.4879C63.6255 21.2526 63.9171 21.8483 64.5025 22.277C65.092 22.7016 65.7932 22.9119 66.604 22.9119Z" fill="#D6AB93"/>
<path d="M86.6472 6.96667C87.2698 6.96667 87.76 7.09034 88.1199 7.33769C88.484 7.5809 88.7115 7.8571 88.8067 8.1704C88.9059 8.47957 88.8584 8.75577 88.666 9.00311C88.4716 9.24633 88.1199 9.36588 87.607 9.36588C87.2636 9.36588 86.974 9.27518 86.7382 9.0938C86.5066 8.91242 86.2935 8.73722 86.1011 8.56614C85.9067 8.39713 85.6957 8.31056 85.4641 8.31056C85.0545 8.31056 84.6408 8.54759 84.223 9.0196C83.8093 9.48749 83.3336 10.2625 82.7999 11.3446V20.5209C82.7999 21.5227 83.0109 22.1822 83.437 22.4996C83.8672 22.8191 84.7029 22.9778 85.9439 22.9778V23.522H77.9267V22.9778C78.9961 22.9778 79.7924 22.8191 80.3178 22.4996C80.8411 22.1822 81.1038 21.5227 81.1038 20.5209V9.77811H77.8274V9.23396C78.8533 9.23396 79.7138 9.10205 80.4088 8.83822C81.1038 8.57439 81.4513 8.1436 81.4513 7.5438H82.7999V10.4212C83.3129 9.39885 83.8776 8.57026 84.496 7.9313C85.1186 7.28822 85.8364 6.96667 86.6472 6.96667Z" fill="#D6AB93"/>
<path d="M92.2247 1.63245C92.2247 1.18723 92.3736 0.805917 92.6715 0.486436C92.9735 0.162833 93.3499 0 93.7967 0C94.2476 0 94.6344 0.162833 94.955 0.486436C95.2736 0.805917 95.4349 1.18723 95.4349 1.63245C95.4349 2.07766 95.2736 2.45279 94.955 2.75372C94.6344 3.05053 94.2476 3.19894 93.7967 3.19894C93.3499 3.19894 92.9735 3.05053 92.6715 2.75372C92.3736 2.45279 92.2247 2.07766 92.2247 1.63245ZM94.8557 20.521C94.8557 21.5227 95.0667 22.1823 95.4928 22.4997C95.923 22.8192 96.7587 22.9779 97.9998 22.9779V23.5221H89.9825V22.9779C91.0519 22.9779 91.8482 22.8192 92.3736 22.4997C92.8969 22.1823 93.1596 21.5227 93.1596 20.521V9.77819H89.8915V9.23404C90.9174 9.23404 91.7779 9.10213 92.4729 8.83829C93.1679 8.57447 93.5154 8.14368 93.5154 7.54388H94.8557V20.521Z" fill="#D6AB93"/>
</svg>
